<?xml version="1.0" encoding="UTF-8" standalone="no"?>
<svg
   xmlns:dc="http://purl.org/dc/elements/1.1/"
   xmlns:cc="http://creativecommons.org/ns#"
   xmlns:rdf="http://www.w3.org/1999/02/22-rdf-syntax-ns#"
   xmlns:svg="http://www.w3.org/2000/svg"
   xmlns="http://www.w3.org/2000/svg"
   xmlns:sodipodi="http://sodipodi.sourceforge.net/DTD/sodipodi-0.dtd"
   xmlns:inkscape="http://www.inkscape.org/namespaces/inkscape"
   viewBox="0 0 900 900"
   height="900"
   width="900"
   id="svg2"
   version="1.1"
   sodipodi:docname="brauer_und_maelzer.svg"
   inkscape:version="0.92.1 r15371">
  <sodipodi:namedview
     pagecolor="#ffffff"
     bordercolor="#666666"
     borderopacity="1"
     objecttolerance="10"
     gridtolerance="10"
     guidetolerance="10"
     inkscape:pageopacity="0"
     inkscape:pageshadow="2"
     inkscape:window-width="1655"
     inkscape:window-height="1060"
     id="namedview1142"
     showgrid="false"
     inkscape:zoom="0.31328138"
     inkscape:cx="550.31738"
     inkscape:cy="-129.52393"
     inkscape:window-x="253"
     inkscape:window-y="60"
     inkscape:window-maximized="0"
     inkscape:current-layer="svg2" />
  <metadata
     id="metadata8">
    <rdf:RDF>
      <cc:Work
         rdf:about="">
        <dc:format>image/svg+xml</dc:format>
        <dc:type
           rdf:resource="http://purl.org/dc/dcmitype/StillImage" />
        <dc:title></dc:title>
      </cc:Work>
    </rdf:RDF>
  </metadata>
  <defs
     id="defs6" />
  <path
     style="opacity:1;fill:#000000;fill-opacity:1;stroke:none;stroke-width:20;stroke-linecap:butt;stroke-linejoin:round;stroke-miterlimit:4;stroke-dasharray:none;stroke-dashoffset:0;stroke-opacity:1"
     d="M 380 100.83398 A 10.000999 10.000999 0 0 0 370.05078 111.84961 L 387.38477 281.84961 A 10.000999 10.000999 0 0 0 397.33398 290.83398 L 432.5 290.83398 L 432.5 405.42383 C 406.76828 405.87162 382.40675 407.68291 360.39648 410.60742 L 305.55859 315.62695 C 332.84704 295.26639 340.06021 268.3844 333.02734 256.20312 L 272.86914 165.50195 C 266.54291 154.5446 242.94112 166.72018 214.60156 183.08203 C 186.26192 199.44393 163.91596 213.79656 170.24219 224.75391 L 218.71094 322.20312 C 225.74365 334.38413 252.63191 341.5761 283.9082 328.125 L 333.98828 414.86523 C 284.42759 424.3633 252.01953 440.03809 252.01953 457.7793 L 247.42578 476.58594 C 248.66187 477.62755 250.01132 478.68709 251.51758 479.76562 C 261.68654 487.04701 277.3763 494.3509 296.9707 500.48828 C 336.15951 512.76303 390.88189 520.63858 450.60742 520.63867 C 510.33343 520.6388 563.76914 512.74228 600.75195 500.54688 C 619.24336 494.44918 633.57691 487.18252 642.19922 480.20898 C 642.56554 479.9127 642.90447 479.62424 643.24805 479.33398 L 637.98242 457.7793 C 637.98242 440.31562 606.58505 424.85347 558.33203 415.31445 L 613.84375 319.16797 L 644.95508 343.09375 C 645.19289 343.27643 645.44335 343.444 645.70312 343.59375 C 650.89935 346.59378 657.05304 346.39002 662.63281 344.56641 C 668.21257 342.74278 673.69789 339.36193 679.25586 334.82617 C 690.37181 325.75468 701.75402 311.89926 711.51758 294.98828 C 721.28113 278.07731 727.58856 261.29328 729.88672 247.13086 C 731.0358 240.04965 731.22035 233.60924 730.00977 227.86523 C 728.79917 222.1212 725.89933 216.68948 720.70312 213.68945 C 720.44322 213.53984 720.17385 213.40703 719.89648 213.29297 L 619.34375 171.76953 C 619.10595 171.67313 618.86239 171.59045 618.61523 171.52148 C 614.42892 169.69007 609.79854 169.77705 605.51758 170.97852 C 600.71447 172.32651 595.99633 174.91972 591.25 178.44141 C 581.75733 185.48477 572.15774 196.36948 564.29492 209.98828 C 556.43208 223.60711 551.80455 237.36485 550.45117 249.10742 C 549.77446 254.9787 549.88693 260.36169 551.12109 265.19531 C 552.21977 269.49835 554.45768 273.5479 558.12891 276.25781 C 558.31583 276.44148 558.51391 276.61243 558.7207 276.77344 L 593.85156 303.79102 L 531.99023 410.93945 C 509.35486 407.82472 484.17197 405.88798 457.5 405.42383 L 457.5 290.83398 L 492.66602 290.83398 A 10.000999 10.000999 0 0 0 502.61523 281.84961 L 519.94922 111.84961 A 10.000999 10.000999 0 0 0 510 100.83398 L 380 100.83398 z M 391.07227 120.83398 L 432.5 120.83398 L 432.5 159.08398 L 394.97266 159.08398 L 391.07227 120.83398 z M 457.5 120.83398 L 498.92969 120.83398 L 495.0293 159.08398 L 457.5 159.08398 L 457.5 120.83398 z M 397.01172 179.08398 L 432.5 179.08398 L 432.5 214.32812 L 400.60352 214.32812 L 397.01172 179.08398 z M 457.5 179.08398 L 492.99023 179.08398 L 489.39648 214.32812 L 457.5 214.32812 L 457.5 179.08398 z M 612.05664 183.68359 C 612.71991 183.70882 613.12051 183.85332 613.33398 183.97656 C 613.76092 184.22305 614.63416 185.07151 615.28516 187.62109 C 615.93614 190.17067 616.16071 194.09131 615.62109 198.77344 C 614.54186 208.13772 610.52721 220.4884 603.51562 232.63281 C 596.50402 244.77725 587.81422 254.43206 580.24414 260.04883 C 576.45912 262.8572 572.95146 264.62296 570.41797 265.33398 C 567.88447 266.04499 566.71405 265.71134 566.28711 265.46484 C 565.86016 265.21834 564.983 264.36987 564.33203 261.82031 C 563.68106 259.27075 563.45841 255.35202 563.99805 250.66992 C 565.07732 241.30568 569.09191 228.9511 576.10352 216.80664 C 583.11511 204.66221 591.80496 195.01134 599.375 189.39453 C 603.16001 186.58612 606.6677 184.81844 609.20117 184.10742 C 610.4679 183.75191 611.39337 183.65837 612.05664 183.68359 z M 402.64258 234.32812 L 432.5 234.32812 L 432.5 270.83398 L 406.36523 270.83398 L 402.64258 234.32812 z M 457.5 234.32812 L 487.35742 234.32812 L 483.63477 270.83398 L 457.5 270.83398 L 457.5 234.32812 z M 432.5 420.08008 L 432.5 495.48047 C 424.51096 495.35998 416.65959 495.13285 409 494.79102 L 367.99805 423.77539 C 387.71589 421.71241 409.50191 420.42696 432.5 420.08008 z M 457.5 420.08008 C 481.45128 420.44129 504.07013 421.8286 524.42578 424.04297 L 483.6543 494.66016 C 475.15093 495.06943 466.4191 495.34597 457.5 495.48047 L 457.5 420.08008 z M 341.14258 427.25977 L 378.99805 492.82812 C 314.47975 487.21943 268.94678 473.64537 268.94727 457.7793 C 268.94967 445.24292 297.38783 434.13759 341.14258 427.25977 z M 551.2207 427.63477 C 593.63756 434.53761 621.05209 445.46921 621.05469 457.7793 C 621.05517 473.424 576.80282 486.84888 513.71289 492.59766 L 551.2207 427.63477 z M 513.69141 492.59961 C 512.72078 492.68802 511.72554 492.76485 510.74609 492.84961 C 511.72575 492.76505 512.72088 492.68801 513.69141 492.59961 z M 379.22461 492.8457 C 381.55474 493.04749 383.90629 493.24065 386.2832 493.42188 C 388.73639 493.60892 391.21353 493.78501 393.71484 493.94922 C 398.41716 494.25792 403.21061 494.52097 408.07422 494.74414 C 403.21115 494.52117 398.42004 494.25648 393.71484 493.94922 C 391.21141 493.78574 388.738 493.60837 386.2832 493.42188 C 383.90425 493.24114 381.55535 493.04751 379.22461 492.8457 z M 506.13867 493.24023 C 504.42312 493.37668 502.67973 493.4998 500.93945 493.625 C 502.68136 493.50068 504.42181 493.376 506.13867 493.24023 z M 498.6875 493.78711 C 496.40526 493.9439 494.09708 494.0875 491.77539 494.22461 C 494.09789 494.08845 496.404 493.94267 498.6875 493.78711 z M 491.27148 494.25586 C 488.83992 494.39777 486.3843 494.52665 483.91211 494.64648 C 486.38446 494.52668 488.83836 494.39686 491.27148 494.25586 z M 432.73438 495.48242 C 434.42925 495.50768 436.13086 495.52792 437.83594 495.54492 C 436.12734 495.53022 434.4301 495.50751 432.73438 495.48242 z M 457.26562 495.48242 C 455.56989 495.50751 453.87267 495.53022 452.16406 495.54492 C 453.86913 495.52792 455.57074 495.50768 457.26562 495.48242 z M 241.01172 502.84375 C 233.60618 533.16159 226.44074 562.49876 218.95508 593.14453 C 220.83996 594.47938 223.23672 595.94582 226.14648 597.41602 C 236.83902 602.81857 253.92461 608.3231 275.33398 612.89844 C 318.15272 622.04912 378.44317 627.87301 445 627.87305 C 511.55736 627.87315 571.84675 622.04913 614.66602 612.89844 C 636.07565 608.3231 653.16277 602.81861 663.85547 597.41602 C 666.76479 595.94606 669.16214 594.48115 671.04688 593.14648 L 649.66406 505.60742 C 638.49585 512.86464 624.68428 518.97856 608.58008 524.28906 C 567.91061 537.70016 512.50383 545.6388 450.60742 545.63867 C 388.71151 545.63858 332.06138 537.67742 289.49805 524.3457 C 270.27848 518.32573 253.92644 511.26131 241.01172 502.84375 z M 212.73242 618.61523 C 206.49413 644.15438 199.88771 671.20291 194.12695 694.78711 C 222.80716 725.48031 324.24317 748.16602 445 748.16602 C 565.75679 748.16602 667.19287 725.48031 695.87305 694.78711 L 677.26758 618.61523 C 676.56399 618.99026 675.85628 619.36296 675.12891 619.73047 C 661.16417 626.78629 642.571 632.50075 619.89062 637.34766 C 574.52989 647.04148 513.00106 652.87315 445 652.87305 C 376.99948 652.87301 315.4696 647.04147 270.10938 637.34766 C 247.42926 632.50076 228.83566 626.78627 214.87109 619.73047 C 214.14372 619.36296 213.43601 618.99026 212.73242 618.61523 z M 189.49609 713.74805 L 185.99805 728.06836 C 185.99802 767.33506 301.95713 799.16602 445 799.16602 C 588.04286 799.16602 704.00198 767.33506 704.00195 728.06836 L 700.50391 713.74805 C 680.20689 747.45715 573.54989 773.16602 445 773.16602 C 316.45009 773.16602 209.79313 747.45715 189.49609 713.74805 z "
     id="path2039" />
</svg>
