<?xml version="1.0" encoding="UTF-8" standalone="no"?>
<svg
   xmlns:dc="http://purl.org/dc/elements/1.1/"
   xmlns:cc="http://creativecommons.org/ns#"
   xmlns:rdf="http://www.w3.org/1999/02/22-rdf-syntax-ns#"
   xmlns:svg="http://www.w3.org/2000/svg"
   xmlns="http://www.w3.org/2000/svg"
   version="1.1"
   width="32"
   height="32"
   viewBox="0 0 30 30"
   id="svg2">
  <metadata
     id="metadata10">
    <rdf:RDF>
      <cc:Work
         rdf:about="">
        <dc:format>image/svg+xml</dc:format>
        <dc:type
           rdf:resource="http://purl.org/dc/dcmitype/StillImage" />
        <dc:title></dc:title>
      </cc:Work>
    </rdf:RDF>
  </metadata>
  <defs
     id="defs8" />
  <rect
     width="14"
     height="14"
     x="0"
     y="16"
     id="canvas"
     style="visibility:hidden;fill:none;stroke:none" />
  <path
     style="opacity:1;fill:#000080;fill-opacity:1;stroke:none;stroke-width:0;stroke-linecap:butt;stroke-linejoin:miter;stroke-miterlimit:4;stroke-dasharray:none;stroke-dashoffset:0;stroke-opacity:1"
     d="M 4.6875,0 C 2.090625,0 0,2.090625 0,4.6875 v 20.625 C 0,27.909375 2.090625,30 4.6875,30 h 20.625 C 27.909375,30 30,27.909375 30,25.3125 V 4.6875 C 30,2.090625 27.909375,0 25.3125,0 Z"
     id="rect5129" />
  <g
     style="stroke-width:0.88387042"
     id="g5761"
     transform="matrix(1.1313876,0,0,1.1313876,-2.2453051,-1.8098007)">
    <path
       id="polygon1945"
       transform="matrix(0.82862849,0,0,0.82862849,1.9845587,1.5996293)"
       d="m 22.078125,4 c -1.426482,0 -2.789556,0.5835581 -3.833984,1.625 l 0.990234,1.0332031 c 1.846419,-1.7690406 4.715186,-1.4674123 6.210937,0.6660157 L 26.824219,6.7832031 C 25.779792,5.0564782 24.00247,4.0000001 22.078125,4 Z M 10.943359,5.640625 9.8046875,6.5214844 C 11.658682,9.161528 15.073004,9.7451825 17.574219,7.8574219 L 16.583984,6.7558594 c -0.669949,0.4325627 -1.433629,0.6777343 -2.21289,0.6777344 -1.332322,0 -2.585699,-0.6762985 -3.427735,-1.7929688 z m 14.947266,3.0292969 -0.205078,7.5117191 -7.253906,-4.582032 v 4.582032 l -7.216797,-4.582032 v 4.582032 L 4,11.599609 V 28 H 28 L 27.703125,8.6699219 Z m -4.558594,9.2695311 h 1.591797 c 5.56e-4,1.324448 -0.0019,2.227185 0.01172,3.619141 0.01403,0.418973 0.04203,0.612023 0.125,0.875 0.08483,0.268849 0.19448,0.44967 0.361328,0.595703 0.24394,0.213498 0.47805,0.32347 1.009766,0.46875 0.434008,0.118581 0.594441,0.187989 0.767578,0.332031 0.248994,0.207156 0.39379,0.488863 0.449219,0.875 0.01443,0.100491 0.01898,0.37573 0.02539,1.13086 l 0.0098,0.998046 H 23.90625 22.126953 20.349609 18.570312 l 0.0078,-0.998046 c 0.0063,-0.75513 0.01291,-1.030356 0.02734,-1.13086 0.05543,-0.386137 0.202178,-0.667844 0.451172,-0.875 0.173138,-0.144042 0.329662,-0.21345 0.763671,-0.332031 0.531713,-0.14528 0.767779,-0.255252 1.011719,-0.46875 0.166848,-0.146033 0.276514,-0.326854 0.361328,-0.595703 0.08297,-0.262977 0.110978,-0.456027 0.125,-0.875 0.0093,-1.205819 0.01472,-2.413109 0.01367,-3.619141 z"
       style="fill:#ffffff;stroke-width:1.93660402" />
  </g>
</svg>
