<?xml version="1.0" encoding="UTF-8" standalone="no"?>
<svg
   xmlns:dc="http://purl.org/dc/elements/1.1/"
   xmlns:cc="http://creativecommons.org/ns#"
   xmlns:rdf="http://www.w3.org/1999/02/22-rdf-syntax-ns#"
   xmlns:svg="http://www.w3.org/2000/svg"
   xmlns="http://www.w3.org/2000/svg"
   version="1.1"
   width="32"
   height="40"
   viewBox="0 0 30 37.5"
   id="svg2">
  <metadata
     id="metadata10">
    <rdf:RDF>
      <cc:Work
         rdf:about="">
        <dc:format>image/svg+xml</dc:format>
        <dc:type
           rdf:resource="http://purl.org/dc/dcmitype/StillImage" />
        <dc:title></dc:title>
      </cc:Work>
    </rdf:RDF>
  </metadata>
  <defs
     id="defs8" />
  <rect
     width="14"
     height="14"
     x="0"
     y="23.5"
     id="canvas"
     style="visibility:hidden;fill:none;stroke:none" />
  <path
     style="opacity:1;fill:#005500;fill-opacity:1;stroke:none;stroke-width:0;stroke-linecap:butt;stroke-linejoin:miter;stroke-miterlimit:4;stroke-dasharray:none;stroke-dashoffset:0;stroke-opacity:1"
     d="M 5 0 C 2.23 0 0 2.23 0 5 L 0 27 C 0 29.77 2.23 32 5 32 L 8.5 32 L 16 40 L 23.5 32 L 27 32 C 29.77 32 32 29.77 32 27 L 32 5 C 32 2.23 29.77 0 27 0 L 5 0 z "
     transform="scale(0.9375)"
     id="rect5129" />
  <path
     id="path2039"
     d="m 12.556692,2.8125 a 0.34908108,0.34908108 0 0 0 -0.347273,0.3844977 l 0.605036,5.9337813 a 0.34908108,0.34908108 0 0 0 0.347273,0.313598 h 1.227459 v 3.999715 c -0.898156,0.01564 -1.748486,0.07886 -2.516748,0.180932 L 9.9583434,10.309767 C 10.910836,9.599086 11.162608,8.660784 10.91713,8.235601 L 8.8173318,5.0697104 C 8.5965142,4.6872496 7.7727047,5.1122302 6.7835231,5.6833377 5.7943387,6.254442 5.0143601,6.755416 5.235175,7.137877 l 1.6917835,3.401426 c 0.2454718,0.425176 1.1840006,0.676211 2.2756888,0.206705 l 1.7480247,3.027633 C 9.2207752,14.105166 8.0895824,14.652289 8.0895824,15.27154 l -0.1603423,0.656439 c 0.043141,0.03635 0.090241,0.07334 0.1428216,0.110984 0.3549452,0.254155 0.9025871,0.509094 1.5865242,0.723318 1.3678721,0.428447 3.2779381,0.703337 5.3626331,0.703344 2.084712,3e-6 3.949866,-0.275625 5.24074,-0.7013 0.645431,-0.212836 1.145742,-0.466476 1.4467,-0.709885 0.01278,-0.01037 0.02461,-0.02041 0.0366,-0.03055 l -0.183794,-0.752359 c 0,-0.609562 -1.095916,-1.149263 -2.78017,-1.482219 l 1.937615,-3.355958 1.085931,0.835123 c 0.0083,0.0064 0.01704,0.01224 0.0261,0.01745 0.181373,0.104716 0.396164,0.0976 0.590925,0.03394 0.194759,-0.06365 0.386222,-0.181659 0.580224,-0.339974 0.387998,-0.31664 0.785286,-0.800259 1.12608,-1.39053 0.340791,-0.59027 0.560952,-1.176111 0.641169,-1.670445 0.04011,-0.247166 0.04655,-0.471967 0.0043,-0.67246 -0.04226,-0.200492 -0.143474,-0.390083 -0.324847,-0.494798 -0.0091,-0.0052 -0.01847,-0.0099 -0.02817,-0.01382 L 20.910838,5.288478 c -0.0083,-0.00334 -0.01682,-0.00621 -0.02543,-0.00862 C 20.739286,5.21593 20.577666,5.218971 20.428239,5.260916 20.260588,5.30797 20.095903,5.3984805 19.930236,5.5214033 19.598898,5.7672498 19.263828,6.1471775 18.989377,6.622535 c -0.274449,0.475362 -0.435971,0.95557 -0.483209,1.365437 -0.02361,0.204937 -0.01971,0.392826 0.02336,0.561545 0.03835,0.150197 0.116461,0.291544 0.244604,0.386129 0.0065,0.0064 0.01342,0.0124 0.02067,0.01799 l 1.226232,0.943039 -2.159246,3.739975 c -0.790052,-0.108733 -1.66905,-0.176335 -2.600027,-0.192536 V 9.444395 h 1.227457 A 0.34908108,0.34908108 0 0 0 16.836489,9.130801 L 17.441526,3.1970144 A 0.34908108,0.34908108 0 0 0 17.094253,2.8125158 Z m 0.386475,0.6980894 h 1.44602 V 4.8456949 H 13.07931 Z m 2.318635,0 h 1.446087 l -0.13614,1.3351055 h -1.309947 z m -2.111321,2.0331977 h 1.238706 V 6.773967 h -1.113338 z m 2.111321,0 h 1.238772 L 16.375137,6.773967 h -1.113335 z m 5.394741,0.1605463 c 0.02314,9.272e-4 0.03713,0.00593 0.04459,0.010208 0.01491,0.00862 0.04538,0.038218 0.0681,0.1272146 0.02273,0.088989 0.03055,0.2258401 0.01173,0.3892699 -0.03767,0.3268551 -0.177804,0.7579531 -0.422542,1.1818451 -0.244734,0.423901 -0.548048,0.760896 -0.81228,0.956946 -0.132113,0.09803 -0.254547,0.159659 -0.342978,0.184475 -0.08843,0.02483 -0.129283,0.01316 -0.144186,0.0045 -0.01491,-0.0086 -0.04552,-0.03822 -0.06824,-0.127214 -0.02272,-0.08899 -0.03048,-0.225771 -0.01166,-0.3892 0.03767,-0.326853 0.177801,-0.758087 0.422538,-1.181985 0.244737,-0.423898 0.548051,-0.7607573 0.812281,-0.9568066 0.132115,-0.09803 0.25455,-0.1597294 0.342977,-0.184545 0.04422,-0.012396 0.07652,-0.015669 0.09967,-0.014779 z m -7.30952,1.7677296 h 1.042164 v 1.274221 h -0.912225 z m 1.914779,0 h 1.042161 l -0.129936,1.274221 h -0.912225 z m -0.872615,6.4836 v 2.631821 c -0.278858,-0.0042 -0.552906,-0.01215 -0.820259,-0.02406 l -1.43116,-2.478775 c 0.688245,-0.072 1.448678,-0.116874 2.251419,-0.128984 z m 0.872615,0 c 0.836009,0.01259 1.625512,0.06103 2.336017,0.138324 l -1.423111,2.464867 c -0.296808,0.01427 -0.601591,0.02394 -0.912906,0.02864 z m -4.061412,0.250604 1.32133,2.288638 c -2.251989,-0.195766 -3.8412973,-0.669566 -3.8412816,-1.223364 7.61e-5,-0.43758 0.9927058,-0.825206 2.5199516,-1.065274 z m 7.332696,0.01309 c 1.480547,0.240942 2.437439,0.622506 2.437531,1.052186 1.6e-5,0.546072 -1.544594,1.014661 -3.746727,1.21532 z m -1.309943,2.267576 c -0.03388,0.0032 -0.06862,0.0057 -0.102809,0.0087 0.03419,-0.0029 0.06893,-0.0057 0.102809,-0.0087 z m -4.693514,0.0086 c 0.08133,0.007 0.16341,0.01377 0.246376,0.02009 0.08562,0.0066 0.172092,0.01268 0.259401,0.01841 0.164133,0.01077 0.331446,0.01996 0.501208,0.02775 -0.169743,-0.0078 -0.336977,-0.017 -0.501208,-0.02775 -0.08739,-0.0057 -0.173718,-0.01189 -0.259401,-0.01841 -0.08304,-0.0063 -0.165021,-0.01306 -0.246376,-0.02009 z m 4.429885,0.01377 c -0.05988,0.0047 -0.12073,0.0091 -0.181474,0.01342 0.0608,-0.0044 0.121549,-0.0087 0.181474,-0.01342 z m -0.26008,0.01907 c -0.07966,0.0055 -0.160226,0.01049 -0.241263,0.01529 0.08106,-0.0047 0.16156,-0.0098 0.241263,-0.01529 z m -0.258851,0.01634 c -0.08487,0.0049 -0.170588,0.0095 -0.256876,0.01364 0.0863,-0.0042 0.171947,-0.0087 0.256876,-0.01364 z m -2.043217,0.04281 c 0.05916,9.27e-4 0.118552,0.0016 0.17807,0.0022 -0.05964,-6.36e-4 -0.11888,-0.0013 -0.17807,-0.0022 z m 0.856254,0 c -0.05919,9.27e-4 -0.118428,0.0016 -0.178067,0.0022 0.05952,-6.36e-4 0.118908,-0.0013 0.178067,-0.0022 z m -7.5482619,0.256965 c -0.2584884,1.058232 -0.5085915,2.082236 -0.7698772,3.151914 0.065792,0.04659 0.14945,0.09778 0.2510118,0.149094 0.3732205,0.188576 0.969585,0.380709 1.7168708,0.54041 1.4945745,0.319401 3.5989885,0.522679 5.9221285,0.522683 2.323161,2e-6 4.427539,-0.203282 5.92213,-0.522683 0.747295,-0.159704 1.343714,-0.351837 1.716941,-0.540413 0.101546,-0.05131 0.185225,-0.10244 0.251011,-0.149027 l -0.74636,-3.055517 c -0.38982,0.25331 -0.87191,0.466715 -1.434017,0.652074 -1.419555,0.468111 -3.353508,0.745207 -5.513978,0.745204 -2.160453,-3e-6 -4.137805,-0.277888 -5.6234636,-0.743223 -0.670851,-0.210157 -1.2416109,-0.45674 -1.6923972,-0.75055 z m -0.987077,4.040957 c -0.217744,0.891436 -0.4483396,1.835557 -0.6494169,2.658753 1.0010725,1.071334 4.5416588,1.86317 8.7566278,1.86317 4.214971,0 7.75556,-0.791836 8.75663,-1.86317 l -0.649417,-2.658756 c -0.02454,0.01306 -0.04926,0.0261 -0.07465,0.03893 -0.487434,0.246282 -1.136422,0.445743 -1.928072,0.614922 -1.583299,0.338356 -3.73094,0.54191 -6.104493,0.541907 -2.373528,0 -4.521208,-0.203551 -6.1044901,-0.541907 -0.7916405,-0.169179 -1.4406448,-0.368642 -1.9280728,-0.614922 -0.025395,-0.01284 -0.050085,-0.02584 -0.074646,-0.03893 z M 5.907224,24.206022 5.7851273,24.705864 c 0,1.37059 4.0475081,2.481636 9.0403647,2.481636 4.992858,0 9.040369,-1.111046 9.040369,-2.481636 l -0.1221,-0.499842 c -0.708461,1.1766 -4.431284,2.073961 -8.918269,2.073961 -4.486986,0 -8.2098064,-0.897361 -8.918268,-2.073961 z"
     style="opacity:1;fill:#ffffff;fill-opacity:1;stroke:none;stroke-width:18.75;stroke-linecap:butt;stroke-linejoin:round;stroke-miterlimit:4;stroke-dasharray:none;stroke-dashoffset:0;stroke-opacity:1" />
</svg>
