<?xml version="1.0" encoding="UTF-8" standalone="no"?>
<svg
   xmlns:dc="http://purl.org/dc/elements/1.1/"
   xmlns:cc="http://creativecommons.org/ns#"
   xmlns:rdf="http://www.w3.org/1999/02/22-rdf-syntax-ns#"
   xmlns:svg="http://www.w3.org/2000/svg"
   xmlns="http://www.w3.org/2000/svg"
   id="svg2"
   viewBox="0 0 30 37.5"
   height="40"
   width="32"
   version="1.1">
  <metadata
     id="metadata10">
    <rdf:RDF>
      <cc:Work
         rdf:about="">
        <dc:format>image/svg+xml</dc:format>
        <dc:type
           rdf:resource="http://purl.org/dc/dcmitype/StillImage" />
        <dc:title></dc:title>
      </cc:Work>
    </rdf:RDF>
  </metadata>
  <defs
     id="defs8" />
  <rect
     style="visibility:hidden;fill:none;stroke:none"
     id="canvas"
     y="23.5"
     x="0"
     height="14"
     width="14" />
  <path
     id="rect5129"
     transform="scale(0.9375)"
     d="M 5 0 C 2.23 0 0 2.23 0 5 L 0 27 C 0 29.77 2.23 32 5 32 L 8.5 32 L 16 40 L 23.5 32 L 27 32 C 29.77 32 32 29.77 32 27 L 32 5 C 32 2.23 29.77 0 27 0 L 5 0 z "
     style="opacity:1;fill:#000080;fill-opacity:1;stroke:none;stroke-width:0;stroke-linecap:butt;stroke-linejoin:miter;stroke-miterlimit:4;stroke-dasharray:none;stroke-dashoffset:0;stroke-opacity:1" />
  <g
     transform="matrix(1.1313876,0,0,1.1313876,-2.2453051,-1.8098007)"
     id="g5761"
     style="stroke-width:0.88387042">
    <path
       style="fill:#ffffff;stroke-width:1.93660402"
       d="M 22.078125 4 C 20.651643 4 19.288569 4.5835581 18.244141 5.625 L 19.234375 6.6582031 C 21.080794 4.8891625 23.949561 5.1907908 25.445312 7.3242188 L 26.824219 6.7832031 C 25.779792 5.0564782 24.00247 4.0000001 22.078125 4 z M 10.943359 5.640625 L 9.8046875 6.5214844 C 11.658682 9.161528 15.073004 9.7451825 17.574219 7.8574219 L 16.583984 6.7558594 C 15.914035 7.1884221 15.150355 7.4335937 14.371094 7.4335938 C 13.038772 7.4335938 11.785395 6.7572953 10.943359 5.640625 z M 25.890625 8.6699219 L 25.685547 16.181641 L 18.431641 11.599609 L 18.431641 16.181641 L 11.214844 11.599609 L 11.214844 16.181641 L 4 11.599609 L 4 28 L 28 28 L 27.703125 8.6699219 L 25.890625 8.6699219 z M 21.332031 17.939453 L 22.923828 17.939453 C 22.924384 19.263901 22.921881 20.166638 22.935547 21.558594 C 22.949582 21.977567 22.97758 22.170617 23.060547 22.433594 C 23.145374 22.702443 23.255027 22.883264 23.421875 23.029297 C 23.665815 23.242795 23.899925 23.352767 24.431641 23.498047 C 24.865649 23.616628 25.026082 23.686036 25.199219 23.830078 C 25.448213 24.037234 25.593009 24.318941 25.648438 24.705078 C 25.662871 24.805569 25.66742 25.080808 25.673828 25.835938 L 25.683594 26.833984 L 23.90625 26.833984 L 22.126953 26.833984 L 20.349609 26.833984 L 18.570312 26.833984 L 18.578125 25.835938 C 18.5844 25.080808 18.591035 24.805582 18.605469 24.705078 C 18.660898 24.318941 18.807647 24.037234 19.056641 23.830078 C 19.229779 23.686036 19.386303 23.616628 19.820312 23.498047 C 20.352025 23.352767 20.588091 23.242795 20.832031 23.029297 C 20.998879 22.883264 21.108545 22.702443 21.193359 22.433594 C 21.276328 22.170617 21.304337 21.977567 21.318359 21.558594 C 21.327652 20.352775 21.333081 19.145485 21.332031 17.939453 z "
       transform="matrix(0.82862849,0,0,0.82862849,1.9845587,1.5996293)"
       id="polygon1945" />
  </g>
</svg>
