<?xml version="1.0" encoding="UTF-8" standalone="no"?>
<svg
   xmlns:dc="http://purl.org/dc/elements/1.1/"
   xmlns:cc="http://creativecommons.org/ns#"
   xmlns:rdf="http://www.w3.org/1999/02/22-rdf-syntax-ns#"
   xmlns:svg="http://www.w3.org/2000/svg"
   xmlns="http://www.w3.org/2000/svg"
   height="16"
   width="16"
   id="svg6"
   version="1.1"
   viewBox="0 0 16 16">
  <metadata
     id="metadata12">
    <rdf:RDF>
      <cc:Work
         rdf:about="">
        <dc:format>image/svg+xml</dc:format>
        <dc:type
           rdf:resource="http://purl.org/dc/dcmitype/StillImage" />
        <dc:title></dc:title>
      </cc:Work>
    </rdf:RDF>
  </metadata>
  <defs
     id="defs10" />
  <g
     style="stroke-width:1.478598"
     transform="matrix(0.67631637,0,0,0.67631637,-117.85536,146.61048)"
     id="g4491">
    <path
       id="rect4483"
       transform="matrix(1.478598,0,0,1.478598,174.26069,-216.77796)"
       d="M 0 0 L 0 16 L 16 16 L 16 0 L 0 0 z M 6.6601562 0.5 L 9.34375 0.5 C 9.3444263 2.7335889 9.3401512 4.2560756 9.3632812 6.6035156 C 9.3868847 7.3100836 9.4342483 7.6346305 9.5742188 8.078125 C 9.71728 8.5315207 9.9022191 8.8377105 10.183594 9.0839844 C 10.594983 9.4440349 10.990004 9.6299976 11.886719 9.875 C 12.618635 10.074973 12.889655 10.190674 13.181641 10.433594 C 13.601552 10.782945 13.845973 11.258965 13.939453 11.910156 C 13.963733 12.079628 13.971736 12.542923 13.982422 13.816406 L 13.998047 15.5 L 11 15.5 L 8 15.5 L 5.0019531 15.5 L 2.0019531 15.5 L 2.015625 13.816406 C 2.025905 12.542923 2.0362671 12.079655 2.0605469 11.910156 C 2.1540747 11.258965 2.4023543 10.782945 2.8222656 10.433594 C 3.1142449 10.190674 3.3774451 10.074973 4.109375 9.875 C 5.0060758 9.6299976 5.4050233 9.4440349 5.8164062 9.0839844 C 6.0977877 8.8377105 6.2827539 8.5315207 6.4257812 8.078125 C 6.5657043 7.6346305 6.6130747 7.3100836 6.6367188 6.6035156 C 6.6524769 4.5699743 6.6619823 2.533893 6.6601562 0.5 z "
       style="opacity:1;fill:#552200;fill-opacity:1;stroke:none;stroke-width:0;stroke-miterlimit:4;stroke-dasharray:none;stroke-dashoffset:0;stroke-opacity:1" />
  </g>
</svg>
